<mxfile host="65bd71144e">
    <diagram id="GN0BXTHgoFAEq-mjwDP2" name="Page-1">
        <mxGraphModel dx="798" dy="847" grid="1" gridSize="10" guides="1" tooltips="1" connect="1" arrows="1" fold="1" page="1" pageScale="1" pageWidth="850" pageHeight="1100" math="0" shadow="0">
            <root>
                <mxCell id="0"/>
                <mxCell id="1" parent="0"/>
                <mxCell id="7" style="edgeStyle=none;html=1;" parent="1" source="6" target="5" edge="1">
                    <mxGeometry relative="1" as="geometry"/>
                </mxCell>
                <mxCell id="9" value="AddProductToBasket" style="edgeLabel;html=1;align=center;verticalAlign=middle;resizable=0;points=[];" parent="7" vertex="1" connectable="0">
                    <mxGeometry x="-0.0772" relative="1" as="geometry">
                        <mxPoint as="offset"/>
                    </mxGeometry>
                </mxCell>
                <mxCell id="6" value="Actor" style="shape=umlActor;verticalLabelPosition=bottom;verticalAlign=top;html=1;outlineConnect=0;" parent="1" vertex="1">
                    <mxGeometry x="120" y="20" width="30" height="60" as="geometry"/>
                </mxCell>
                <mxCell id="5" value="Presentation" style="ellipse;whiteSpace=wrap;html=1;aspect=fixed;verticalAlign=top;" parent="1" vertex="1">
                    <mxGeometry x="130" y="260" width="340" height="340" as="geometry"/>
                </mxCell>
                <mxCell id="4" value="Infrastructure" style="ellipse;whiteSpace=wrap;html=1;aspect=fixed;verticalAlign=top;" parent="1" vertex="1">
                    <mxGeometry x="170" y="300" width="260" height="260" as="geometry"/>
                </mxCell>
                <mxCell id="3" value="Application&lt;br&gt;" style="ellipse;whiteSpace=wrap;html=1;aspect=fixed;verticalAlign=top;" parent="1" vertex="1">
                    <mxGeometry x="215" y="350" width="170" height="170" as="geometry"/>
                </mxCell>
                <mxCell id="2" value="Domain" style="ellipse;whiteSpace=wrap;html=1;aspect=fixed;" parent="1" vertex="1">
                    <mxGeometry x="255" y="390" width="90" height="90" as="geometry"/>
                </mxCell>
            </root>
        </mxGraphModel>
    </diagram>
</mxfile>